<svg id="visual" viewBox="0 0 900 400" width="900" height="400" xmlns="http://www.w3.org/2000/svg" xmlns:xlink="http://www.w3.org/1999/xlink" version="1.1"><path d="M0 196L21.5 192.7C43 189.3 86 182.7 128.8 183.5C171.7 184.3 214.3 192.7 257.2 205.5C300 218.3 343 235.7 385.8 234.8C428.7 234 471.3 215 514.2 206.8C557 198.7 600 201.3 642.8 208C685.7 214.7 728.3 225.3 771.2 219.5C814 213.7 857 191.3 878.5 180.2L900 169L900 401L878.5 401C857 401 814 401 771.2 401C728.3 401 685.7 401 642.8 401C600 401 557 401 514.2 401C471.3 401 428.7 401 385.8 401C343 401 300 401 257.2 401C214.3 401 171.7 401 128.8 401C86 401 43 401 21.5 401L0 401Z" fill="#0a192f"></path><path d="M0 271L21.5 270.2C43 269.3 86 267.7 128.8 263.2C171.7 258.7 214.3 251.3 257.2 253.8C300 256.3 343 268.7 385.8 263.8C428.7 259 471.3 237 514.2 229.7C557 222.3 600 229.7 642.8 237.7C685.7 245.7 728.3 254.3 771.2 249.3C814 244.3 857 225.7 878.5 216.3L900 207L900 401L878.5 401C857 401 814 401 771.2 401C728.3 401 685.7 401 642.8 401C600 401 557 401 514.2 401C471.3 401 428.7 401 385.8 401C343 401 300 401 257.2 401C214.3 401 171.7 401 128.8 401C86 401 43 401 21.5 401L0 401Z" fill="#3974ab"></path><path d="M0 292L21.5 293.5C43 295 86 298 128.8 299C171.7 300 214.3 299 257.2 290.8C300 282.7 343 267.3 385.8 267C428.7 266.7 471.3 281.3 514.2 287C557 292.7 600 289.3 642.8 282.7C685.7 276 728.3 266 771.2 261.5C814 257 857 258 878.5 258.5L900 259L900 401L878.5 401C857 401 814 401 771.2 401C728.3 401 685.7 401 642.8 401C600 401 557 401 514.2 401C471.3 401 428.7 401 385.8 401C343 401 300 401 257.2 401C214.3 401 171.7 401 128.8 401C86 401 43 401 21.5 401L0 401Z" fill="#4db5ff"></path><path d="M0 318L21.5 315.5C43 313 86 308 128.8 311.5C171.7 315 214.3 327 257.2 330.2C300 333.3 343 327.7 385.8 325.3C428.7 323 471.3 324 514.2 320.7C557 317.3 600 309.7 642.8 311.7C685.7 313.7 728.3 325.3 771.2 328.7C814 332 857 327 878.5 324.5L900 322L900 401L878.5 401C857 401 814 401 771.2 401C728.3 401 685.7 401 642.8 401C600 401 557 401 514.2 401C471.3 401 428.7 401 385.8 401C343 401 300 401 257.2 401C214.3 401 171.7 401 128.8 401C86 401 43 401 21.5 401L0 401Z" fill="#3974ab"></path><path d="M0 367L21.5 365.5C43 364 86 361 128.8 359.2C171.7 357.3 214.3 356.7 257.2 352.3C300 348 343 340 385.8 340C428.7 340 471.3 348 514.2 348C557 348 600 340 642.8 343.2C685.7 346.3 728.3 360.7 771.2 360.2C814 359.7 857 344.3 878.5 336.7L900 329L900 401L878.5 401C857 401 814 401 771.2 401C728.3 401 685.7 401 642.8 401C600 401 557 401 514.2 401C471.3 401 428.7 401 385.8 401C343 401 300 401 257.2 401C214.3 401 171.7 401 128.8 401C86 401 43 401 21.5 401L0 401Z" fill="#0a192f"></path></svg>