<svg id="visual" viewBox="0 0 900 400" width="900" height="400" xmlns="http://www.w3.org/2000/svg" xmlns:xlink="http://www.w3.org/1999/xlink" version="1.1"><rect x="0" y="0" width="900" height="400" fill="#0A192F"></rect><path d="M0 333L21.5 318.3C43 303.7 86 274.3 128.8 263.2C171.7 252 214.3 259 257.2 261.5C300 264 343 262 385.8 255C428.7 248 471.3 236 514.2 240.5C557 245 600 266 642.8 277.8C685.7 289.7 728.3 292.3 771.2 281.2C814 270 857 245 878.5 232.5L900 220L900 401L878.5 401C857 401 814 401 771.2 401C728.3 401 685.7 401 642.8 401C600 401 557 401 514.2 401C471.3 401 428.7 401 385.8 401C343 401 300 401 257.2 401C214.3 401 171.7 401 128.8 401C86 401 43 401 21.5 401L0 401Z" fill="#61F8D4" stroke-linecap="round" stroke-linejoin="miter"></path></svg>