<svg id="visual" viewBox="0 0 900 400" width="900" height="400" xmlns="http://www.w3.org/2000/svg" xmlns:xlink="http://www.w3.org/1999/xlink" version="1.1"><path d="M0 205L21.5 211.5C43 218 86 231 128.8 236.2C171.7 241.3 214.3 238.7 257.2 226C300 213.3 343 190.7 385.8 187.7C428.7 184.7 471.3 201.3 514.2 210.5C557 219.7 600 221.3 642.8 220.2C685.7 219 728.3 215 771.2 215.5C814 216 857 221 878.5 223.5L900 226L900 401L878.5 401C857 401 814 401 771.2 401C728.3 401 685.7 401 642.8 401C600 401 557 401 514.2 401C471.3 401 428.7 401 385.8 401C343 401 300 401 257.2 401C214.3 401 171.7 401 128.8 401C86 401 43 401 21.5 401L0 401Z" fill="#0a192f"></path><path d="M0 256L21.5 256.2C43 256.3 86 256.7 128.8 252.5C171.7 248.3 214.3 239.7 257.2 235.8C300 232 343 233 385.8 241C428.7 249 471.3 264 514.2 271.5C557 279 600 279 642.8 270.5C685.7 262 728.3 245 771.2 244.5C814 244 857 260 878.5 268L900 276L900 401L878.5 401C857 401 814 401 771.2 401C728.3 401 685.7 401 642.8 401C600 401 557 401 514.2 401C471.3 401 428.7 401 385.8 401C343 401 300 401 257.2 401C214.3 401 171.7 401 128.8 401C86 401 43 401 21.5 401L0 401Z" fill="#3974ab"></path><path d="M0 251L21.5 256.7C43 262.3 86 273.7 128.8 279.5C171.7 285.3 214.3 285.7 257.2 289.3C300 293 343 300 385.8 295.8C428.7 291.7 471.3 276.3 514.2 268C557 259.7 600 258.3 642.8 258.3C685.7 258.3 728.3 259.7 771.2 262.2C814 264.7 857 268.3 878.5 270.2L900 272L900 401L878.5 401C857 401 814 401 771.2 401C728.3 401 685.7 401 642.8 401C600 401 557 401 514.2 401C471.3 401 428.7 401 385.8 401C343 401 300 401 257.2 401C214.3 401 171.7 401 128.8 401C86 401 43 401 21.5 401L0 401Z" fill="#4db5ff"></path><path d="M0 325L21.5 322.2C43 319.3 86 313.7 128.8 308.7C171.7 303.7 214.3 299.3 257.2 304.2C300 309 343 323 385.8 324.8C428.7 326.7 471.3 316.3 514.2 313.7C557 311 600 316 642.8 321.5C685.7 327 728.3 333 771.2 333.7C814 334.3 857 329.7 878.5 327.3L900 325L900 401L878.5 401C857 401 814 401 771.2 401C728.3 401 685.7 401 642.8 401C600 401 557 401 514.2 401C471.3 401 428.7 401 385.8 401C343 401 300 401 257.2 401C214.3 401 171.7 401 128.8 401C86 401 43 401 21.5 401L0 401Z" fill="#3974ab"></path><path d="M0 356L21.5 352.5C43 349 86 342 128.8 337.8C171.7 333.7 214.3 332.3 257.2 336.8C300 341.3 343 351.7 385.8 353.8C428.7 356 471.3 350 514.2 351.3C557 352.7 600 361.3 642.8 366.2C685.7 371 728.3 372 771.2 366C814 360 857 347 878.5 340.5L900 334L900 401L878.5 401C857 401 814 401 771.2 401C728.3 401 685.7 401 642.8 401C600 401 557 401 514.2 401C471.3 401 428.7 401 385.8 401C343 401 300 401 257.2 401C214.3 401 171.7 401 128.8 401C86 401 43 401 21.5 401L0 401Z" fill="#0a192f"></path></svg>